<svg xmlns="http://www.w3.org/2000/svg" width="1200" height="310" viewBox="0 0 1200 310" role="img" aria-labelledby="title desc">
<title id="title">MedVision — project illustration</title><desc id="desc">Voice and vision, in real time. Concept artwork, not an application screenshot.</desc>
<defs>
<linearGradient id="bg" x2="1" y2="1"><stop stop-color="#0b1220"/><stop offset="1" stop-color="#112c38"/></linearGradient>
<linearGradient id="top" x2="1" y2="1"><stop stop-color="#83f4d2"/><stop offset="1" stop-color="#258c85"/></linearGradient>
<linearGradient id="glass" x2="1" y2="1"><stop stop-color="#203f51"/><stop offset="1" stop-color="#122332"/></linearGradient>
<linearGradient id="gold" x2="1" y2="1"><stop stop-color="#f3d69c"/><stop offset="1" stop-color="#a77b3d"/></linearGradient>
<radialGradient id="glow"><stop stop-color="#4ccbaa" stop-opacity=".15"/><stop offset="1" stop-color="#4ccbaa" stop-opacity="0"/></radialGradient>
<filter id="shadow" x="-50%" y="-50%" width="200%" height="220%"><feDropShadow dx="0" dy="18" stdDeviation="15" flood-color="#000814" flood-opacity=".65"/></filter>
</defs>
<style>
text{font-family:Segoe UI, Inter, Arial, sans-serif}
.float{animation:float 7s ease-in-out infinite}.float-slow{animation:float 9s ease-in-out -3s infinite}
.pulse{animation:pulse 5s ease-in-out infinite}.trace{stroke-dasharray:12 220;animation:trace 10s linear infinite}
@keyframes float{0%,100%{transform:translateY(0)}50%{transform:translateY(-10px)}}
@keyframes pulse{0%,100%{opacity:.4}50%{opacity:1}}
@keyframes trace{to{stroke-dashoffset:-464}}
@media(prefers-reduced-motion:reduce){.float,.float-slow,.pulse,.trace{animation:none!important}}
</style>
<rect x=".5" y=".5" width="1199" height="309" rx="24" fill="url(#bg)" stroke="#263c4e"/>
<text x="40" y="49" font-size="15" fill="#bcaaf6" font-weight="600" letter-spacing="2">02</text><text x="80" y="49" font-size="13" fill="#a7b8cb" font-weight="500" letter-spacing="2">MULTIMODAL AI / LIVE INTERACTION</text><text x="40" y="135" font-size="49" fill="#f1f5f9" font-weight="650" letter-spacing="-1.5">MedVision</text><text x="43" y="181" font-size="23" fill="#b7c8d6" font-weight="400" >Voice and vision, in real time.</text><path d="M43 225H94" stroke="#bcaaf6" stroke-width="2"/><text x="43" y="266" font-size="14" fill="#bcaaf6" font-weight="500" letter-spacing="2">VIEW PROJECT  →</text><ellipse cx="920" cy="266" rx="180" ry="24" fill="#07121d"/><g transform="translate(920 215)"><path d="M-155 0L0 51L155 0V16L0 67L-155 16Z" fill="#102936" stroke="#38606b"/>
<path d="M0 51V67L155 16V0Z" fill="#163d48"/>
<path d="M-155 0L0 -51L155 0L0 51Z" fill="url(#glass)" stroke="#38606b"/>
<path d="M-143 0L0 45L143 0" fill="none" stroke="#96f6dd" opacity=".3"/></g><g class="float"><rect x="815" y="80" width="210" height="139" rx="15" fill="url(#glass)" stroke="#7b779d"/><rect x="830" y="95" width="180" height="107" rx="8" fill="#0b1927"/><rect x="843" y="144.0" width="5" height="12" rx="2.5" fill="#bcaaf6" opacity="0.45" class="pulse" style="animation-delay:-0.0s"/><rect x="855" y="138.0" width="5" height="24" rx="2.5" fill="#bcaaf6" opacity="0.65" class="pulse" style="animation-delay:-0.3s"/><rect x="867" y="129.0" width="5" height="42" rx="2.5" fill="#bcaaf6" opacity="0.8500000000000001" class="pulse" style="animation-delay:-0.6s"/><rect x="879" y="135.5" width="5" height="29" rx="2.5" fill="#bcaaf6" opacity="0.45" class="pulse" style="animation-delay:-0.8999999999999999s"/><rect x="891" y="119.0" width="5" height="62" rx="2.5" fill="#bcaaf6" opacity="0.65" class="pulse" style="animation-delay:-1.2s"/><rect x="903" y="109.0" width="5" height="82" rx="2.5" fill="#bcaaf6" opacity="0.8500000000000001" class="pulse" style="animation-delay:-1.5s"/><rect x="915" y="123.0" width="5" height="54" rx="2.5" fill="#bcaaf6" opacity="0.45" class="pulse" style="animation-delay:-1.7999999999999998s"/><rect x="927" y="135.0" width="5" height="30" rx="2.5" fill="#bcaaf6" opacity="0.65" class="pulse" style="animation-delay:-2.1s"/><rect x="939" y="126.5" width="5" height="47" rx="2.5" fill="#bcaaf6" opacity="0.8500000000000001" class="pulse" style="animation-delay:-2.4s"/><rect x="951" y="114.0" width="5" height="72" rx="2.5" fill="#bcaaf6" opacity="0.45" class="pulse" style="animation-delay:-2.6999999999999997s"/><rect x="963" y="131.0" width="5" height="38" rx="2.5" fill="#bcaaf6" opacity="0.65" class="pulse" style="animation-delay:-3.0s"/><rect x="975" y="139.0" width="5" height="22" rx="2.5" fill="#bcaaf6" opacity="0.8500000000000001" class="pulse" style="animation-delay:-3.3s"/><rect x="987" y="144.0" width="5" height="12" rx="2.5" fill="#bcaaf6" opacity="0.45" class="pulse" style="animation-delay:-3.5999999999999996s"/></g><circle cx="1064" cy="101" r="30" fill="#203342" stroke="#bcaaf6"/><circle cx="1064" cy="101" r="12" fill="none" stroke="#dfd4ff"/><circle cx="1064" cy="101" r="5" fill="#bcaaf6"/><style>*{animation:none!important;transition:none!important}.s,.u{display:none!important}</style></svg>
